<mxfile host="app.diagrams.net" agent="Mozilla/5.0 (Windows NT 10.0; Win64; x64) AppleWebKit/537.36 (KHTML, like Gecko) Chrome/134.0.0.0 Safari/537.36 Edg/134.0.0.0" version="26.1.0">
  <diagram name="Page-1" id="55a83fd1-7818-8e21-69c5-c3457e3827bb">
    <mxGraphModel grid="1" page="1" gridSize="10" guides="1" tooltips="1" connect="1" arrows="1" fold="1" pageScale="1" pageWidth="1100" pageHeight="850" background="none" math="0" shadow="0">
      <root>
        <mxCell id="0" />
        <mxCell id="1" parent="0" />
        <mxCell id="Cfvd1hQllvNvp8uk3-Jt-36" value="INTERNET" style="rounded=0;whiteSpace=wrap;html=1;verticalAlign=top;fontStyle=1;fontSize=14;fillColor=light-dark(#fff0f0, #512d2b);strokeColor=none;" vertex="1" parent="1">
          <mxGeometry x="280" y="80" width="800" height="640" as="geometry" />
        </mxCell>
        <mxCell id="Cfvd1hQllvNvp8uk3-Jt-34" value="INTRANET" style="rounded=0;whiteSpace=wrap;html=1;fillColor=light-dark(#f0fff0, #002b00);strokeColor=none;verticalAlign=top;fontStyle=1;fontSize=14;fontColor=#336600;" vertex="1" parent="1">
          <mxGeometry x="40" y="80" width="240" height="640" as="geometry" />
        </mxCell>
        <mxCell id="Cfvd1hQllvNvp8uk3-Jt-24" style="edgeStyle=orthogonalEdgeStyle;rounded=0;orthogonalLoop=1;jettySize=auto;html=1;entryX=0;entryY=0.5;entryDx=0;entryDy=0;" edge="1" parent="1" source="69ecfefc5c41e42c-3">
          <mxGeometry relative="1" as="geometry">
            <mxPoint x="390" y="250" as="targetPoint" />
          </mxGeometry>
        </mxCell>
        <mxCell id="69ecfefc5c41e42c-3" value="Firewall" style="image;html=1;labelBackgroundColor=#ffffff;image=img/lib/clip_art/networking/Firewall_128x128.png;rounded=1;shadow=0;comic=0;strokeWidth=2;fontSize=22;labelPosition=center;verticalLabelPosition=bottom;align=center;verticalAlign=top;" vertex="1" parent="1">
          <mxGeometry x="225.70000000000002" y="240" width="80" height="80" as="geometry" />
        </mxCell>
        <mxCell id="69ecfefc5c41e42c-4" value="Tablet" style="image;html=1;labelBackgroundColor=#ffffff;image=img/lib/clip_art/computers/iPad_128x128.png;rounded=1;shadow=0;comic=0;strokeWidth=2;fontSize=22;labelPosition=right;verticalLabelPosition=middle;align=left;verticalAlign=middle;" vertex="1" parent="1">
          <mxGeometry x="910" y="577.2" width="80" height="80" as="geometry" />
        </mxCell>
        <mxCell id="Cfvd1hQllvNvp8uk3-Jt-32" style="edgeStyle=orthogonalEdgeStyle;rounded=0;orthogonalLoop=1;jettySize=auto;html=1;" edge="1" parent="1" source="69ecfefc5c41e42c-5" target="Cfvd1hQllvNvp8uk3-Jt-27">
          <mxGeometry relative="1" as="geometry" />
        </mxCell>
        <mxCell id="69ecfefc5c41e42c-5" value="PC" style="image;html=1;labelBackgroundColor=#ffffff;image=img/lib/clip_art/computers/Monitor_Tower_128x128.png;rounded=1;shadow=0;comic=0;strokeWidth=2;fontSize=22;labelPosition=right;verticalLabelPosition=middle;align=left;verticalAlign=middle;" vertex="1" parent="1">
          <mxGeometry x="910" y="460" width="80" height="80" as="geometry" />
        </mxCell>
        <mxCell id="Cfvd1hQllvNvp8uk3-Jt-31" style="edgeStyle=orthogonalEdgeStyle;rounded=0;orthogonalLoop=1;jettySize=auto;html=1;entryX=1;entryY=0.75;entryDx=0;entryDy=0;" edge="1" parent="1" source="69ecfefc5c41e42c-8" target="Cfvd1hQllvNvp8uk3-Jt-27">
          <mxGeometry relative="1" as="geometry" />
        </mxCell>
        <mxCell id="69ecfefc5c41e42c-8" value="Mobile" style="image;html=1;labelBackgroundColor=#ffffff;image=img/lib/clip_art/telecommunication/iPhone_128x128.png;rounded=1;shadow=0;comic=0;strokeWidth=2;fontSize=22;labelPosition=right;verticalLabelPosition=middle;align=left;verticalAlign=middle;" vertex="1" parent="1">
          <mxGeometry x="910" y="340" width="80" height="80" as="geometry" />
        </mxCell>
        <mxCell id="Cfvd1hQllvNvp8uk3-Jt-30" style="edgeStyle=orthogonalEdgeStyle;rounded=0;orthogonalLoop=1;jettySize=auto;html=1;entryX=1;entryY=0.5;entryDx=0;entryDy=0;" edge="1" parent="1" source="69ecfefc5c41e42c-9" target="Cfvd1hQllvNvp8uk3-Jt-27">
          <mxGeometry relative="1" as="geometry" />
        </mxCell>
        <mxCell id="69ecfefc5c41e42c-9" value="Laptop" style="image;html=1;labelBackgroundColor=#ffffff;image=img/lib/clip_art/computers/Netbook_128x128.png;rounded=1;shadow=0;comic=0;strokeColor=#000000;strokeWidth=2;fillColor=#FFFFFF;fontSize=22;fontColor=#000000;labelPosition=right;verticalLabelPosition=middle;align=left;verticalAlign=middle;" vertex="1" parent="1">
          <mxGeometry x="910" y="230" width="80" height="80" as="geometry" />
        </mxCell>
        <mxCell id="Cfvd1hQllvNvp8uk3-Jt-11" style="edgeStyle=orthogonalEdgeStyle;rounded=0;orthogonalLoop=1;jettySize=auto;html=1;entryX=0.25;entryY=0;entryDx=0;entryDy=0;" edge="1" parent="1" source="Cfvd1hQllvNvp8uk3-Jt-2" target="Cfvd1hQllvNvp8uk3-Jt-3">
          <mxGeometry relative="1" as="geometry" />
        </mxCell>
        <mxCell id="Cfvd1hQllvNvp8uk3-Jt-2" value="" style="image;aspect=fixed;perimeter=ellipsePerimeter;html=1;align=center;shadow=0;dashed=0;spacingTop=3;image=img/lib/active_directory/windows_server_2.svg;" vertex="1" parent="1">
          <mxGeometry x="79.7" y="400" width="80" height="100" as="geometry" />
        </mxCell>
        <mxCell id="Cfvd1hQllvNvp8uk3-Jt-3" value="" style="image;aspect=fixed;perimeter=ellipsePerimeter;html=1;align=center;shadow=0;dashed=0;spacingTop=3;image=img/lib/active_directory/database_server.svg;" vertex="1" parent="1">
          <mxGeometry x="79.7" y="560" width="79.7" height="97.2" as="geometry" />
        </mxCell>
        <mxCell id="Cfvd1hQllvNvp8uk3-Jt-13" style="edgeStyle=orthogonalEdgeStyle;rounded=0;orthogonalLoop=1;jettySize=auto;html=1;entryX=0.25;entryY=0;entryDx=0;entryDy=0;exitX=0.5;exitY=1;exitDx=0;exitDy=0;" edge="1" parent="1" source="Cfvd1hQllvNvp8uk3-Jt-12" target="Cfvd1hQllvNvp8uk3-Jt-2">
          <mxGeometry relative="1" as="geometry" />
        </mxCell>
        <mxCell id="Cfvd1hQllvNvp8uk3-Jt-16" value="" style="group" connectable="0" vertex="1" parent="1">
          <mxGeometry x="79.69999999999999" y="230" width="120.85000000000002" height="114.23000000000002" as="geometry" />
        </mxCell>
        <mxCell id="Cfvd1hQllvNvp8uk3-Jt-12" value="" style="image;aspect=fixed;perimeter=ellipsePerimeter;html=1;align=center;shadow=0;dashed=0;spacingTop=3;image=img/lib/active_directory/generic_server.svg;" vertex="1" parent="Cfvd1hQllvNvp8uk3-Jt-16">
          <mxGeometry width="51.4" height="91.79" as="geometry" />
        </mxCell>
        <mxCell id="Cfvd1hQllvNvp8uk3-Jt-14" value="" style="shape=image;verticalLabelPosition=bottom;labelBackgroundColor=default;verticalAlign=top;aspect=fixed;imageAspect=0;image=https://dwglogo.com/wp-content/uploads/2020/05/Cloudflare_icon_transparent.png;" vertex="1" parent="Cfvd1hQllvNvp8uk3-Jt-16">
          <mxGeometry x="-9.699999999999989" y="35.889999999999986" width="120.85" height="78.34" as="geometry" />
        </mxCell>
        <mxCell id="Cfvd1hQllvNvp8uk3-Jt-18" style="edgeStyle=orthogonalEdgeStyle;rounded=0;orthogonalLoop=1;jettySize=auto;html=1;exitX=1.032;exitY=0.417;exitDx=0;exitDy=0;exitPerimeter=0;" edge="1" parent="1" source="Cfvd1hQllvNvp8uk3-Jt-12" target="69ecfefc5c41e42c-3">
          <mxGeometry relative="1" as="geometry" />
        </mxCell>
        <mxCell id="Cfvd1hQllvNvp8uk3-Jt-23" value="" style="group" connectable="0" vertex="1" parent="1">
          <mxGeometry x="390" y="170" width="700" height="560" as="geometry" />
        </mxCell>
        <mxCell id="Cfvd1hQllvNvp8uk3-Jt-19" value="&lt;font style=&quot;font-size: 24px;&quot;&gt;DMZ&lt;/font&gt;" style="html=1;verticalLabelPosition=bottom;align=center;labelBackgroundColor=#ffffff;verticalAlign=top;strokeWidth=2;strokeColor=#0080F0;shadow=0;dashed=0;shape=mxgraph.ios7.icons.cloud;" vertex="1" parent="Cfvd1hQllvNvp8uk3-Jt-23">
          <mxGeometry x="25.909999999999968" y="20" width="195" height="100" as="geometry" />
        </mxCell>
        <mxCell id="Cfvd1hQllvNvp8uk3-Jt-26" style="edgeStyle=orthogonalEdgeStyle;rounded=0;orthogonalLoop=1;jettySize=auto;html=1;entryX=0.5;entryY=0;entryDx=0;entryDy=0;exitX=0.651;exitY=0.008;exitDx=0;exitDy=0;exitPerimeter=0;" edge="1" parent="1" source="Cfvd1hQllvNvp8uk3-Jt-19" target="Cfvd1hQllvNvp8uk3-Jt-12">
          <mxGeometry relative="1" as="geometry">
            <mxPoint x="513.4099999999999" y="170" as="sourcePoint" />
          </mxGeometry>
        </mxCell>
        <mxCell id="Cfvd1hQllvNvp8uk3-Jt-28" style="edgeStyle=orthogonalEdgeStyle;rounded=0;orthogonalLoop=1;jettySize=auto;html=1;" edge="1" parent="1" source="Cfvd1hQllvNvp8uk3-Jt-27">
          <mxGeometry relative="1" as="geometry">
            <mxPoint x="636.8200000000002" y="250" as="targetPoint" />
          </mxGeometry>
        </mxCell>
        <mxCell id="Cfvd1hQllvNvp8uk3-Jt-27" value="" style="image;aspect=fixed;perimeter=ellipsePerimeter;html=1;align=center;shadow=0;dashed=0;spacingTop=3;image=img/lib/active_directory/web_server.svg;" vertex="1" parent="1">
          <mxGeometry x="690" y="230" width="80" height="100" as="geometry" />
        </mxCell>
        <mxCell id="Cfvd1hQllvNvp8uk3-Jt-33" style="edgeStyle=orthogonalEdgeStyle;rounded=0;orthogonalLoop=1;jettySize=auto;html=1;entryX=0.081;entryY=1.008;entryDx=0;entryDy=0;entryPerimeter=0;" edge="1" parent="1" source="69ecfefc5c41e42c-4" target="Cfvd1hQllvNvp8uk3-Jt-27">
          <mxGeometry relative="1" as="geometry" />
        </mxCell>
      </root>
    </mxGraphModel>
  </diagram>
</mxfile>
